<?xml version="1.0" standalone="no"?>
<!DOCTYPE svg PUBLIC "-//W3C//DTD SVG 20010904//EN"
 "http://www.w3.org/TR/2001/REC-SVG-20010904/DTD/svg10.dtd">
<svg version="1.0" xmlns="http://www.w3.org/2000/svg"
 width="1070.000000pt" height="729.000000pt" viewBox="0 0 1070.000000 729.000000"
 preserveAspectRatio="xMidYMid meet">

<g transform="translate(0.000000,729.000000) scale(0.100000,-0.100000)"
fill="#000000" stroke="none">
<path d="M760 4245 l0 -1975 1005 0 1005 0 0 300 0 300 -705 0 -705 0 0 1675
0 1675 -300 0 -300 0 0 -1975z"/>
<path d="M7260 4225 l0 -1975 300 0 300 0 0 835 0 835 338 0 337 0 431 -833
431 -832 337 -3 c185 -1 336 -1 336 1 0 3 -611 1185 -845 1634 l-64 123 47 20
c150 66 354 245 455 397 268 405 257 928 -27 1307 -161 213 -384 367 -636 437
l-85 24 -827 3 -828 3 0 -1976z m1621 1357 c133 -44 259 -153 319 -275 105
-214 66 -459 -98 -625 -37 -37 -94 -81 -128 -99 -116 -62 -130 -63 -646 -63
l-468 0 0 546 0 545 478 -3 c460 -4 479 -4 543 -26z"/>
</g>
</svg>
